<svg id="visual" viewBox="0 0 1500 200" width="1500" height="200" xmlns="http://www.w3.org/2000/svg" xmlns:xlink="http://www.w3.org/1999/xlink" version="1.1"><rect x="0" y="0" width="1500" height="200" fill="#0F0F0F"></rect><path d="M0 51L31.3 49.8C62.7 48.7 125.3 46.3 187.8 42.2C250.3 38 312.7 32 375.2 33.5C437.7 35 500.3 44 562.8 46.5C625.3 49 687.7 45 750.2 39.7C812.7 34.3 875.3 27.7 937.8 26C1000.3 24.3 1062.7 27.7 1125.2 33C1187.7 38.3 1250.3 45.7 1312.8 46.5C1375.3 47.3 1437.7 41.7 1468.8 38.8L1500 36L1500 201L1468.8 201C1437.7 201 1375.3 201 1312.8 201C1250.3 201 1187.7 201 1125.2 201C1062.7 201 1000.3 201 937.8 201C875.3 201 812.7 201 750.2 201C687.7 201 625.3 201 562.8 201C500.3 201 437.7 201 375.2 201C312.7 201 250.3 201 187.8 201C125.3 201 62.7 201 31.3 201L0 201Z" fill="#0f0f0f"></path><path d="M0 84L31.3 81.8C62.7 79.7 125.3 75.3 187.8 76.3C250.3 77.3 312.7 83.7 375.2 82.5C437.7 81.3 500.3 72.7 562.8 67.7C625.3 62.7 687.7 61.3 750.2 66.8C812.7 72.3 875.3 84.7 937.8 90.7C1000.3 96.7 1062.7 96.3 1125.2 90.2C1187.7 84 1250.3 72 1312.8 71.3C1375.3 70.7 1437.7 81.3 1468.8 86.7L1500 92L1500 201L1468.8 201C1437.7 201 1375.3 201 1312.8 201C1250.3 201 1187.7 201 1125.2 201C1062.7 201 1000.3 201 937.8 201C875.3 201 812.7 201 750.2 201C687.7 201 625.3 201 562.8 201C500.3 201 437.7 201 375.2 201C312.7 201 250.3 201 187.8 201C125.3 201 62.7 201 31.3 201L0 201Z" fill="#191919"></path><path d="M0 106L31.3 111.3C62.7 116.7 125.3 127.3 187.8 129.8C250.3 132.3 312.7 126.7 375.2 124.8C437.7 123 500.3 125 562.8 123.5C625.3 122 687.7 117 750.2 114.3C812.7 111.7 875.3 111.3 937.8 115.3C1000.3 119.3 1062.7 127.7 1125.2 126C1187.7 124.3 1250.3 112.7 1312.8 112.2C1375.3 111.7 1437.7 122.3 1468.8 127.7L1500 133L1500 201L1468.8 201C1437.7 201 1375.3 201 1312.8 201C1250.3 201 1187.7 201 1125.2 201C1062.7 201 1000.3 201 937.8 201C875.3 201 812.7 201 750.2 201C687.7 201 625.3 201 562.8 201C500.3 201 437.7 201 375.2 201C312.7 201 250.3 201 187.8 201C125.3 201 62.7 201 31.3 201L0 201Z" fill="#222222"></path><path d="M0 159L31.3 159.7C62.7 160.3 125.3 161.7 187.8 164C250.3 166.3 312.7 169.7 375.2 165.7C437.7 161.7 500.3 150.3 562.8 150C625.3 149.7 687.7 160.3 750.2 166.2C812.7 172 875.3 173 937.8 171.2C1000.3 169.3 1062.7 164.7 1125.2 159.5C1187.7 154.3 1250.3 148.7 1312.8 148.7C1375.3 148.7 1437.7 154.3 1468.8 157.2L1500 160L1500 201L1468.8 201C1437.7 201 1375.3 201 1312.8 201C1250.3 201 1187.7 201 1125.2 201C1062.7 201 1000.3 201 937.8 201C875.3 201 812.7 201 750.2 201C687.7 201 625.3 201 562.8 201C500.3 201 437.7 201 375.2 201C312.7 201 250.3 201 187.8 201C125.3 201 62.7 201 31.3 201L0 201Z" fill="#2b2b2b"></path></svg>