<svg id="visual" viewBox="0 0 1500 250" width="1500" height="250" xmlns="http://www.w3.org/2000/svg" xmlns:xlink="http://www.w3.org/1999/xlink" version="1.1"><rect x="0" y="0" width="1500" height="250" fill="#0F0F0F"></rect><path d="M0 68L25 67.2C50 66.3 100 64.7 150 61C200 57.3 250 51.7 300 46C350 40.3 400 34.7 450 35.7C500 36.7 550 44.3 600 45.7C650 47 700 42 750 39.8C800 37.7 850 38.3 900 39.8C950 41.3 1000 43.7 1050 47.3C1100 51 1150 56 1200 56.2C1250 56.3 1300 51.7 1350 46.8C1400 42 1450 37 1475 34.5L1500 32L1500 251L1475 251C1450 251 1400 251 1350 251C1300 251 1250 251 1200 251C1150 251 1100 251 1050 251C1000 251 950 251 900 251C850 251 800 251 750 251C700 251 650 251 600 251C550 251 500 251 450 251C400 251 350 251 300 251C250 251 200 251 150 251C100 251 50 251 25 251L0 251Z" fill="#0f0f0f"></path><path d="M0 68L25 72.5C50 77 100 86 150 89.3C200 92.7 250 90.3 300 83.7C350 77 400 66 450 64.8C500 63.7 550 72.3 600 75.7C650 79 700 77 750 75C800 73 850 71 900 72.8C950 74.7 1000 80.3 1050 81.5C1100 82.7 1150 79.3 1200 79.7C1250 80 1300 84 1350 82.2C1400 80.3 1450 72.7 1475 68.8L1500 65L1500 251L1475 251C1450 251 1400 251 1350 251C1300 251 1250 251 1200 251C1150 251 1100 251 1050 251C1000 251 950 251 900 251C850 251 800 251 750 251C700 251 650 251 600 251C550 251 500 251 450 251C400 251 350 251 300 251C250 251 200 251 150 251C100 251 50 251 25 251L0 251Z" fill="#171717"></path><path d="M0 143L25 144.5C50 146 100 149 150 146.3C200 143.7 250 135.3 300 134.2C350 133 400 139 450 139.5C500 140 550 135 600 134.3C650 133.7 700 137.3 750 137.3C800 137.3 850 133.7 900 135C950 136.3 1000 142.7 1050 137.2C1100 131.7 1150 114.3 1200 105.8C1250 97.3 1300 97.7 1350 99.8C1400 102 1450 106 1475 108L1500 110L1500 251L1475 251C1450 251 1400 251 1350 251C1300 251 1250 251 1200 251C1150 251 1100 251 1050 251C1000 251 950 251 900 251C850 251 800 251 750 251C700 251 650 251 600 251C550 251 500 251 450 251C400 251 350 251 300 251C250 251 200 251 150 251C100 251 50 251 25 251L0 251Z" fill="#1d1d1d"></path><path d="M0 158L25 161.3C50 164.7 100 171.3 150 168.2C200 165 250 152 300 154.3C350 156.7 400 174.3 450 177.2C500 180 550 168 600 160.8C650 153.7 700 151.3 750 153.8C800 156.3 850 163.7 900 161.8C950 160 1000 149 1050 151.7C1100 154.3 1150 170.7 1200 172.5C1250 174.3 1300 161.7 1350 157C1400 152.3 1450 155.7 1475 157.3L1500 159L1500 251L1475 251C1450 251 1400 251 1350 251C1300 251 1250 251 1200 251C1150 251 1100 251 1050 251C1000 251 950 251 900 251C850 251 800 251 750 251C700 251 650 251 600 251C550 251 500 251 450 251C400 251 350 251 300 251C250 251 200 251 150 251C100 251 50 251 25 251L0 251Z" fill="#242424"></path><path d="M0 218L25 219.3C50 220.7 100 223.3 150 224.3C200 225.3 250 224.7 300 219.7C350 214.7 400 205.3 450 202.8C500 200.3 550 204.7 600 208.2C650 211.7 700 214.3 750 218C800 221.7 850 226.3 900 220C950 213.7 1000 196.3 1050 197C1100 197.7 1150 216.3 1200 218.5C1250 220.7 1300 206.3 1350 201.7C1400 197 1450 202 1475 204.5L1500 207L1500 251L1475 251C1450 251 1400 251 1350 251C1300 251 1250 251 1200 251C1150 251 1100 251 1050 251C1000 251 950 251 900 251C850 251 800 251 750 251C700 251 650 251 600 251C550 251 500 251 450 251C400 251 350 251 300 251C250 251 200 251 150 251C100 251 50 251 25 251L0 251Z" fill="#2b2b2b"></path></svg>