<svg id="visual" viewBox="0 0 1500 250" width="1500" height="250" xmlns="http://www.w3.org/2000/svg" xmlns:xlink="http://www.w3.org/1999/xlink" version="1.1"><rect x="0" y="0" width="1500" height="250" fill="#FFF"></rect><path d="M0 36L25 42.2C50 48.3 100 60.7 150 66C200 71.3 250 69.7 300 60.3C350 51 400 34 450 25C500 16 550 15 600 14.8C650 14.7 700 15.3 750 16C800 16.7 850 17.3 900 19.7C950 22 1000 26 1050 29.8C1100 33.7 1150 37.3 1200 37.5C1250 37.7 1300 34.3 1350 35.7C1400 37 1450 43 1475 46L1500 49L1500 251L1475 251C1450 251 1400 251 1350 251C1300 251 1250 251 1200 251C1150 251 1100 251 1050 251C1000 251 950 251 900 251C850 251 800 251 750 251C700 251 650 251 600 251C550 251 500 251 450 251C400 251 350 251 300 251C250 251 200 251 150 251C100 251 50 251 25 251L0 251Z" fill="#ffffff"></path><path d="M0 124L25 114.2C50 104.3 100 84.7 150 76.8C200 69 250 73 300 84C350 95 400 113 450 117.7C500 122.3 550 113.7 600 107.5C650 101.3 700 97.7 750 98C800 98.3 850 102.7 900 100.3C950 98 1000 89 1050 89.2C1100 89.3 1150 98.7 1200 105C1250 111.3 1300 114.7 1350 108C1400 101.3 1450 84.7 1475 76.3L1500 68L1500 251L1475 251C1450 251 1400 251 1350 251C1300 251 1250 251 1200 251C1150 251 1100 251 1050 251C1000 251 950 251 900 251C850 251 800 251 750 251C700 251 650 251 600 251C550 251 500 251 450 251C400 251 350 251 300 251C250 251 200 251 150 251C100 251 50 251 25 251L0 251Z" fill="#f8f9f9"></path><path d="M0 162L25 159.2C50 156.3 100 150.7 150 151.5C200 152.3 250 159.7 300 162.7C350 165.7 400 164.3 450 156.8C500 149.3 550 135.7 600 136C650 136.3 700 150.7 750 158.2C800 165.7 850 166.3 900 167.7C950 169 1000 171 1050 169.3C1100 167.7 1150 162.3 1200 155.8C1250 149.3 1300 141.7 1350 141.2C1400 140.7 1450 147.3 1475 150.7L1500 154L1500 251L1475 251C1450 251 1400 251 1350 251C1300 251 1250 251 1200 251C1150 251 1100 251 1050 251C1000 251 950 251 900 251C850 251 800 251 750 251C700 251 650 251 600 251C550 251 500 251 450 251C400 251 350 251 300 251C250 251 200 251 150 251C100 251 50 251 25 251L0 251Z" fill="#f2f3f3"></path><path d="M0 202L25 200C50 198 100 194 150 192.5C200 191 250 192 300 195.8C350 199.7 400 206.3 450 212.2C500 218 550 223 600 224.7C650 226.3 700 224.7 750 224.7C800 224.7 850 226.3 900 219.3C950 212.3 1000 196.7 1050 193C1100 189.3 1150 197.7 1200 201.8C1250 206 1300 206 1350 210.3C1400 214.7 1450 223.3 1475 227.7L1500 232L1500 251L1475 251C1450 251 1400 251 1350 251C1300 251 1250 251 1200 251C1150 251 1100 251 1050 251C1000 251 950 251 900 251C850 251 800 251 750 251C700 251 650 251 600 251C550 251 500 251 450 251C400 251 350 251 300 251C250 251 200 251 150 251C100 251 50 251 25 251L0 251Z" fill="#ebeeee"></path></svg>